<?xml version="1.0" encoding="UTF-8"?>
<svg xmlns="http://www.w3.org/2000/svg" version="1.1" viewBox="0 0 1532 678">
  <!-- Generator: Adobe Illustrator 29.8.1, SVG Export Plug-In . SVG Version: 2.1.1 Build 2)  -->
  <defs>
    <style>
      .st0 {
        font-family: MyriadPro-Regular, 'Myriad Pro';
        font-size: 60px;
      }

      .st0, .st1, .st2 {
        fill: #fff;
      }

      .st3 {
        fill: none;
        stroke-linecap: round;
        stroke-width: 7px;
      }

      .st3, .st2 {
        stroke: #000;
        stroke-miterlimit: 10;
      }

      .st2 {
        stroke-width: 6px;
      }
    </style>
  </defs>
  <g id="Good_dogs_go_to_heaven._Dirty_dogs_go_anywhere">
    <text class="st0" transform="translate(142.93 544.83)"><tspan x="0" y="0">Good dogs go to heaven. Dirty dogs go anywhere</tspan></text>
  </g>
  <g id="Layer_20">
    <g>
      <path class="st1" d="M212.45,381.9h-45.04v-127.05h45.41c12.78,0,23.78,2.53,33,7.6,9.22,5.07,16.33,12.34,21.31,21.81,4.98,9.47,7.48,20.8,7.48,34s-2.49,24.61-7.48,34.12c-4.98,9.51-12.12,16.81-21.4,21.9-9.29,5.09-20.38,7.63-33.28,7.63ZM194.28,358.88h17.06c7.94,0,14.63-1.42,20.07-4.25,5.44-2.83,9.53-7.24,12.28-13.21,2.75-5.98,4.13-13.7,4.13-23.17s-1.38-17.06-4.13-23.02c-2.75-5.96-6.83-10.34-12.25-13.15-5.42-2.81-12.1-4.22-20.04-4.22h-17.12v81.02Z"/>
      <path class="st1" d="M307.24,274.33c-3.93,0-7.29-1.3-10.08-3.91s-4.19-5.75-4.19-9.43,1.41-6.83,4.22-9.46c2.81-2.63,6.16-3.94,10.05-3.94s7.29,1.3,10.08,3.91c2.79,2.61,4.19,5.75,4.19,9.43s-1.4,6.83-4.19,9.46c-2.79,2.63-6.15,3.94-10.08,3.94ZM293.97,381.9v-95.29h26.43v95.29h-26.43Z"/>
      <path class="st1" d="M341.49,381.9v-95.29h25.62v16.63h.99c1.74-5.91,4.65-10.39,8.75-13.43,4.09-3.04,8.81-4.56,14.14-4.56,1.32,0,2.75.08,4.28.25,1.53.17,2.87.39,4.03.68v23.45c-1.24-.37-2.96-.7-5.15-.99-2.19-.29-4.2-.43-6.02-.43-3.89,0-7.35.84-10.39,2.51-3.04,1.67-5.44,4-7.2,6.98-1.76,2.98-2.64,6.41-2.64,10.3v53.91h-26.43Z"/>
      <path class="st1" d="M468.35,286.61v19.85h-57.38v-19.85h57.38ZM423.99,263.78h26.43v88.84c0,2.44.37,4.33,1.12,5.68.74,1.34,1.79,2.29,3.13,2.82,1.34.54,2.91.81,4.68.81,1.24,0,2.48-.11,3.72-.34,1.24-.23,2.19-.4,2.85-.53l4.16,19.67c-1.32.41-3.19.9-5.58,1.46-2.4.56-5.31.9-8.75,1.02-6.37.25-11.94-.6-16.72-2.54-4.78-1.94-8.49-4.96-11.14-9.06-2.65-4.09-3.95-9.26-3.91-15.51v-92.31Z"/>
    </g>
    <g>
      <path class="st1" d="M986.41,381.67h-45.04v-127.05h45.41c12.78,0,23.78,2.53,33,7.6,9.22,5.07,16.33,12.34,21.31,21.81,4.98,9.47,7.48,20.8,7.48,34s-2.49,24.61-7.48,34.12c-4.98,9.51-12.12,16.81-21.4,21.9-9.29,5.09-20.38,7.63-33.28,7.63ZM968.23,358.65h17.06c7.94,0,14.63-1.42,20.07-4.25,5.44-2.83,9.53-7.24,12.28-13.21,2.75-5.98,4.12-13.7,4.12-23.17s-1.38-17.06-4.12-23.02c-2.75-5.96-6.83-10.34-12.25-13.15-5.42-2.81-12.1-4.22-20.04-4.22h-17.12v81.02Z"/>
      <path class="st1" d="M1110.98,383.53c-9.64,0-17.96-2.06-24.97-6.17-7.01-4.12-12.42-9.86-16.22-17.25-3.81-7.38-5.71-15.95-5.71-25.71s1.9-18.46,5.71-25.84c3.8-7.38,9.21-13.13,16.22-17.25,7.01-4.12,15.33-6.17,24.97-6.17s17.96,2.06,24.97,6.17c7.01,4.12,12.42,9.86,16.22,17.25,3.8,7.38,5.71,16,5.71,25.84s-1.9,18.33-5.71,25.71c-3.81,7.38-9.21,13.13-16.22,17.25-7.01,4.12-15.33,6.17-24.97,6.17ZM1111.1,363.05c4.38,0,8.04-1.25,10.98-3.75,2.94-2.5,5.16-5.92,6.67-10.27,1.51-4.34,2.26-9.28,2.26-14.83s-.75-10.48-2.26-14.83c-1.51-4.34-3.73-7.78-6.67-10.3-2.94-2.52-6.6-3.78-10.98-3.78s-8.14,1.26-11.14,3.78c-3,2.52-5.25,5.96-6.76,10.3-1.51,4.34-2.26,9.29-2.26,14.83s.75,10.48,2.26,14.83,3.76,7.77,6.76,10.27c3,2.5,6.71,3.75,11.14,3.75Z"/>
      <path class="st1" d="M1218.05,419.38c-8.56,0-15.89-1.17-21.99-3.5-6.1-2.34-10.95-5.51-14.55-9.52-3.6-4.01-5.94-8.52-7.01-13.52l24.44-3.29c.75,1.9,1.92,3.68,3.54,5.33,1.61,1.65,3.75,2.99,6.42,4,2.67,1.01,5.92,1.52,9.77,1.52,5.75,0,10.49-1.4,14.24-4.19,3.74-2.79,5.61-7.46,5.61-13.99v-17.43h-1.12c-1.16,2.65-2.9,5.15-5.21,7.51s-5.29,4.28-8.93,5.77c-3.64,1.49-7.98,2.23-13.03,2.23-7.16,0-13.66-1.66-19.51-4.99s-10.51-8.44-13.96-15.32c-3.45-6.89-5.18-15.6-5.18-26.15s1.76-19.81,5.27-27.05c3.51-7.24,8.2-12.66,14.05-16.25,5.85-3.6,12.27-5.4,19.26-5.4,5.33,0,9.8.9,13.4,2.7,3.6,1.8,6.5,4.03,8.72,6.7,2.21,2.67,3.92,5.28,5.12,7.85h.99v-16.01h26.24v96.22c0,8.11-1.99,14.89-5.96,20.35-3.97,5.46-9.46,9.56-16.47,12.31-7.01,2.75-15.07,4.13-24.16,4.13ZM1218.61,360.45c4.26,0,7.87-1.06,10.83-3.2,2.96-2.13,5.23-5.19,6.82-9.18s2.39-8.78,2.39-14.36-.79-10.43-2.36-14.55c-1.57-4.11-3.85-7.31-6.82-9.58-2.98-2.27-6.6-3.41-10.86-3.41s-8,1.17-10.98,3.5c-2.98,2.34-5.23,5.57-6.76,9.71-1.53,4.14-2.3,8.91-2.3,14.33s.78,10.25,2.33,14.24c1.55,3.99,3.8,7.07,6.76,9.24,2.96,2.17,6.61,3.26,10.95,3.26Z"/>
      <path class="st1" d="M1365.02,313.55l-24.19,1.49c-.41-2.07-1.3-3.94-2.67-5.61-1.37-1.68-3.15-3.02-5.37-4.03-2.21-1.01-4.85-1.52-7.91-1.52-4.09,0-7.55.86-10.36,2.57-2.81,1.72-4.22,4-4.22,6.86,0,2.27.91,4.2,2.73,5.77,1.82,1.57,4.94,2.83,9.37,3.78l17.25,3.47c9.26,1.9,16.17,4.96,20.72,9.18,4.55,4.22,6.82,9.76,6.82,16.63,0,6.25-1.83,11.72-5.49,16.44s-8.67,8.39-15.01,11.01c-6.35,2.63-13.66,3.94-21.93,3.94-12.61,0-22.65-2.64-30.12-7.91-7.47-5.27-11.84-12.46-13.12-21.56l25.99-1.37c.79,3.85,2.69,6.77,5.71,8.78,3.02,2.01,6.89,3.01,11.6,3.01s8.36-.9,11.2-2.7,4.27-4.13,4.31-6.98c-.04-2.4-1.05-4.37-3.04-5.92-1.99-1.55-5.05-2.74-9.18-3.57l-16.5-3.29c-9.31-1.86-16.22-5.09-20.75-9.68-4.53-4.59-6.79-10.44-6.79-17.56,0-6.12,1.67-11.39,4.99-15.82,3.33-4.42,8.02-7.84,14.08-10.24,6.06-2.4,13.16-3.6,21.31-3.6,12.04,0,21.52,2.54,28.44,7.63,6.93,5.09,10.97,12.02,12.13,20.78Z"/>
    </g>
    <path class="st1" d="M487.57,429.59c-3.15-1.15-6-2.46-8.57-3.94-2.56-1.48-4.6-2.92-6.12-4.31l12.34-16.5c2.59,1.95,5.04,3.4,7.37,4.33s4.56,1.13,6.71.6c2.15-.54,4.28-2.01,6.39-4.41l2.84-3.26,1.4-103.8,26.12,9.51-5.4,72.5.93.34,42.65-58.95,26.29,9.57-70.92,86.55c-3.43,4.21-7.22,7.59-11.39,10.15-4.16,2.55-8.78,4.02-13.85,4.4-5.07.38-10.67-.55-16.81-2.79Z"/>
    <path class="st1" d="M559.96,207.36c46.43-13.39,94.46-21.23,139.52-39.16-8.47-11.02-16.94-22.03-25.41-33.05-3.83,6.49-7.95,12.78-12.38,18.88-.93,1.28-1.89,2.54-2.83,3.82-1.48,1.95-1.27,1.68.64-.8-.64.83-1.29,1.65-1.94,2.47-2.27,2.85-4.59,5.67-6.94,8.46-8.98,10.62-18.48,20.78-27.85,31.05-20.23,22.2-39.86,45.52-52.95,72.77-4.02,8.35-4.12,17.38,1.76,24.99s14.62,9.99,23.65,8.06c61.97-13.23,117.91-45.68,169.79-80.93,14.68-9.97,29.16-20.24,43.63-30.52-11.02-8.47-22.03-16.94-33.05-25.41-.47,1.16-.92,2.33-1.43,3.48.33-.76,1.79-4.09.06-.19-.89,2-1.77,4-2.68,5.99-2.21,4.83-4.52,9.6-6.9,14.35-4.33,8.64-8.91,17.15-13.57,25.61-9.89,17.95-19.99,35.79-30.01,53.68-20.24,36.15-40.48,72.3-60.72,108.45-11.5,20.53-22.99,41.07-34.49,61.6-11.09,19.8,11.04,41.69,30.78,30.78,41.17-22.74,76.84-54.21,110.87-86.34,35.21-33.24,70.05-66.81,106.63-98.55,20.94-18.17,42.33-35.84,64.25-52.82-11.78-9.09-23.56-18.18-35.34-27.27-35.8,70.01-84.47,132.68-125.94,199.29-10.99,17.65-21.56,35.58-31.03,54.1-4.2,8.2-4,17.54,1.76,24.99,5.81,7.52,14.52,9.78,23.65,8.06,9.57-1.8,18.87-7.11,27.25-11.93,10.85-6.24,21.26-13.25,31.54-20.38,22.53-15.62,44.36-32.21,66.61-48.23,8.09-5.83,16.21-11.93,24.98-16.73-11.29-6.48-22.57-12.95-33.86-19.43-.03.43,1.63-7.79.48-4.15-.28.89-.5,1.8-.78,2.69-.82,2.63-1.77,5.23-2.72,7.82-2.65,7.2-5.49,14.32-8.35,21.44-6.35,15.79-12.93,31.49-19.36,47.24-1.88,4.6-4.03,9.22-5.46,13.98-5.57,18.62,16.43,35.67,33.05,25.41,11.33-7,22.67-14,34-21,10.01-6.18,14.77-20.4,8.07-30.78-6.47-10.04-20.07-14.69-30.78-8.07-11.33,7-22.67,14-34,21l33.05,25.41c3.42-11.44,8.96-22.52,13.5-33.53,6.53-15.83,13.15-31.64,19.13-47.68,2.43-6.51,4.72-12.76,5.17-19.77,1.14-17.7-19.77-27.14-33.86-19.43-18.28,10.01-34.83,23.88-51.58,36.18-21.66,15.9-43.29,32.1-66.28,46.05-4.94,3-9.96,5.89-15.17,8.4-.7.34-2.83.86-3.26,1.5-.09.14,5.94-2.32,3.53-1.5-.59.2-1.16.46-1.75.67-1.67.6-3.37,1.11-5.12,1.44,8.47,11.02,16.94,22.03,25.41,33.05,35.8-70.01,84.47-132.68,125.94-199.29,10.99-17.65,21.56-35.58,31.03-54.1,5.15-10.07,3.36-21.95-5.8-29.03-9.59-7.41-20.53-5.22-29.54,1.76-38.42,29.78-75.15,61.65-110.86,94.62-34.07,31.46-66.54,64.81-102.11,94.61-4.88,4.09-9.75,8.56-15.02,12.15,4.07-2.77.71-.55-.3.22-1.39,1.06-2.79,2.1-4.2,3.14-2.57,1.9-5.16,3.78-7.78,5.62-10.42,7.35-21.21,14.16-32.37,20.32,10.26,10.26,20.52,20.52,30.78,30.78,40.99-73.21,82.24-146.28,122.96-219.64,11.57-20.85,22.33-41.97,31.32-64.07,3.33-8.19-1.72-18.75-8.06-23.65s-17.7-6.94-24.99-1.76c-25.07,17.82-50.19,35.6-76.3,51.87-12.94,8.06-26.12,15.75-39.62,22.83-6.95,3.64-13.98,7.12-21.1,10.4-3.15,1.45-6.33,2.83-9.51,4.23-2.36,1.04,1.26-.5,1.39-.58-.71.42-1.64.68-2.4.99-2.13.87-4.28,1.72-6.43,2.56-15.83,6.13-32.09,11.07-48.7,14.62,8.47,11.02,16.94,22.03,25.41,33.05,6.22-12.93,13.78-27.02,23.45-37.75l-1.62,2.1c.64-.81,1.28-1.62,1.92-2.43,1.12-1.41,2.26-2.8,3.41-4.19,2.12-2.57,4.28-5.12,6.47-7.64,4.7-5.42,9.52-10.74,14.36-16.03,20.34-22.25,40.86-44.63,56.26-70.72,4.62-7.82,3.7-17.92-1.76-24.99-5.02-6.49-15.39-11.35-23.65-8.06-45.06,17.93-93.09,25.77-139.52,39.16-11.3,3.26-19.49,16.02-15.71,27.68,3.72,11.49,15.56,19.21,27.68,15.71h0Z"/>
  </g>
  <g id="Layer_9">
    <g id="Layer_8">
      <path class="st2" d="M810.09,278.24l41.27-74.7s67.86-3.67,80.7,22.01c12.84,25.68-63.28,9.17-63.28,9.17l-39.43,48.6-19.26-5.08Z"/>
    </g>
  </g>
  <g id="Layer_1">
    <g>
      <path class="st1" d="M754.61,455.93c-61.55,0-111.63-50.08-111.63-111.63s50.08-111.63,111.63-111.63,111.63,50.08,111.63,111.63-50.08,111.63-111.63,111.63Z"/>
      <path d="M754.61,235.67c29.02,0,56.3,11.3,76.81,31.82,20.52,20.52,31.82,47.8,31.82,76.81s-11.3,56.3-31.82,76.81c-20.52,20.52-47.8,31.82-76.81,31.82s-56.3-11.3-76.81-31.82c-20.52-20.52-31.82-47.8-31.82-76.81s11.3-56.3,31.82-76.81c20.52-20.52,47.8-31.82,76.81-31.82M754.61,229.67c-63.31,0-114.63,51.32-114.63,114.63s51.32,114.63,114.63,114.63,114.63-51.32,114.63-114.63-51.32-114.63-114.63-114.63h0Z"/>
    </g>
  </g>
  <g id="Layer_18">
    <path d="M793.01,402.68"/>
  </g>
  <g id="Layer_10">
    <ellipse class="st2" cx="742.4" cy="374.71" rx="44.59" ry="24.63"/>
    <ellipse class="st2" cx="831.16" cy="371.31" rx="40.77" ry="17.84"/>
    <circle cx="717.12" cy="372.62" r="2.75"/>
    <circle cx="729.61" cy="384.3" r="2.75"/>
    <circle cx="738.38" cy="367.69" r="2.75"/>
    <circle cx="749.93" cy="384.42" r="2.75"/>
    <circle cx="760.33" cy="367.53" r="2.75"/>
    <circle cx="809.13" cy="373.32" r="2.17"/>
    <circle cx="823.52" cy="364.26" r="2.17"/>
    <circle cx="828.82" cy="376.65" r="2.17"/>
    <circle cx="843.28" cy="364.56" r="2.17"/>
    <circle cx="854.05" cy="375.33" r="2.17"/>
  </g>
  <g id="Layer_14">
    <path d="M813.82,270.82s37.39,18.27,59.86,54.07c9.25-37.12-23.08-75.8-63.59-82.86-40.51-7.05,3.73,28.78,3.73,28.78Z"/>
  </g>
  <g id="Layer_2">
    <g>
      <path class="st1" d="M855.03,357.81c-18.32,0-33.22-11.82-33.22-26.34s14.9-26.35,33.22-26.35,33.22,11.82,33.22,26.35-14.9,26.34-33.22,26.34Z"/>
      <path d="M855.03,308.12c16.66,0,30.22,10.47,30.22,23.35s-13.56,23.35-30.22,23.35-30.22-10.47-30.22-23.35,13.56-23.35,30.22-23.35M855.03,302.12c-20.01,0-36.22,13.14-36.22,29.35s16.22,29.35,36.22,29.35,36.22-13.14,36.22-29.35-16.22-29.35-36.22-29.35h0Z"/>
    </g>
  </g>
  <g id="Layer_5">
    <ellipse cx="867.25" cy="335.84" rx="10.91" ry="10.95"/>
  </g>
  <g id="Nose">
    <ellipse cx="786.95" cy="355.56" rx="14.06" ry="16.1"/>
  </g>
  <g id="Layer_13">
    <path d="M752.59,224.79s-94.09-15.72-120.94,111.05c32.93-42.88,57.24-79.63,84.42-83.87,27.18-4.25,36.52-27.18,36.52-27.18Z"/>
  </g>
  <g id="Layer_3">
    <g>
      <path class="st1" d="M672.54,365.14c-19.33,0-35.06-12.44-35.06-27.72s15.73-27.72,35.06-27.72,35.06,12.44,35.06,27.72-15.73,27.72-35.06,27.72Z"/>
      <path d="M672.54,312.7c17.68,0,32.06,11.09,32.06,24.72s-14.38,24.72-32.06,24.72-32.06-11.09-32.06-24.72,14.38-24.72,32.06-24.72M672.54,306.7c-21.02,0-38.06,13.75-38.06,30.72s17.04,30.72,38.06,30.72,38.06-13.75,38.06-30.72-17.04-30.72-38.06-30.72h0Z"/>
    </g>
  </g>
  <g id="Layer_4">
    <circle cx="660.61" cy="342.01" r="11.46"/>
  </g>
  <g id="Layer_7">
    <path class="st2" d="M646.86,198.03c31.36-10.47,48.6,74.28,48.6,74.28l-16.51,13.76-29.8-54.66s-17.56-28.28-2.29-33.37Z"/>
  </g>
  <g id="Layer_16">
    <path class="st2" d="M636.65,194.63c-33.01,1.83-93.39,30.59-87.89,61.77,5.5,31.18,105.92-26.23,105.92-26.23,0,0,15.95-5.81,13.4-22.8s-31.43-12.74-31.43-12.74Z"/>
  </g>
  <g id="Layer_11">
    <path d="M833.77,283.32l-94.12,54.1,27.38-70.16-101.08,55.21,42.47-79.13s36.52-45.73,90.89-25.34c54.36,20.39,34.46,65.33,34.46,65.33Z"/>
  </g>
  <g id="Layer_15">
    <path class="st3" d="M774.59,410.92c4.76-11.58,27.69-18.37,40.86-6.9"/>
  </g>
</svg>