<?xml version="1.0" encoding="UTF-8"?>
<svg xmlns="http://www.w3.org/2000/svg" version="1.1" viewBox="0 0 512 512">
  <!-- Generator: Adobe Illustrator 29.8.1, SVG Export Plug-In . SVG Version: 2.1.1 Build 2)  -->
  <defs>
    <style>
      .st0, .st1 {
        fill: #fff;
      }

      .st1, .st2 {
        stroke: #000;
        stroke-miterlimit: 10;
        stroke-width: 7px;
      }

      .st2 {
        fill: none;
        stroke-linecap: round;
      }
    </style>
  </defs>
  <g id="Layer_9">
    <g id="Layer_8">
      <path class="st1" d="M345.16,178.78l52.44-94.93s86.24-4.66,102.55,27.97c16.31,32.63-80.41,11.65-80.41,11.65l-50.11,61.76-24.47-6.46Z"/>
    </g>
  </g>
  <g id="Layer_1">
    <g>
      <path class="st0" d="M274.65,404.9c-78.39,0-142.17-63.78-142.17-142.17s63.78-142.17,142.17-142.17,142.17,63.78,142.17,142.17-63.78,142.17-142.17,142.17Z"/>
      <path d="M274.65,124.07c37.04,0,71.86,14.42,98.05,40.61,26.19,26.19,40.61,61.01,40.61,98.05s-14.42,71.86-40.61,98.05c-26.19,26.19-61.01,40.61-98.05,40.61s-71.86-14.42-98.05-40.61c-26.19-26.19-40.61-61.01-40.61-98.05s14.42-71.86,40.61-98.05c26.19-26.19,61.01-40.61,98.05-40.61M274.65,117.07c-80.45,0-145.67,65.22-145.67,145.67s65.22,145.67,145.67,145.67,145.67-65.22,145.67-145.67-65.22-145.67-145.67-145.67h0Z"/>
    </g>
  </g>
  <g id="Layer_18">
    <path d="M323.44,336.92"/>
  </g>
  <g id="Layer_10">
    <ellipse class="st1" cx="259.13" cy="301.38" rx="56.67" ry="31.3"/>
    <ellipse class="st1" cx="371.93" cy="297.06" rx="51.81" ry="22.67"/>
    <circle cx="227.01" cy="298.73" r="3.49"/>
    <circle cx="242.88" cy="313.57" r="3.49"/>
    <circle cx="254.03" cy="292.46" r="3.49"/>
    <circle cx="268.71" cy="313.72" r="3.49"/>
    <circle cx="281.92" cy="292.25" r="3.49"/>
    <circle cx="343.93" cy="299.62" r="2.76"/>
    <circle cx="362.23" cy="288.1" r="2.76"/>
    <circle cx="368.95" cy="303.85" r="2.76"/>
    <circle cx="387.34" cy="288.49" r="2.76"/>
    <circle cx="401.01" cy="302.16" r="2.76"/>
  </g>
  <g id="Layer_14">
    <path d="M349.9,169.36s47.52,23.22,76.06,68.72c11.76-47.18-29.32-96.33-80.8-105.29-51.48-8.96,4.74,36.58,4.74,36.58Z"/>
  </g>
  <g id="Layer_2">
    <g>
      <path class="st0" d="M402.26,280.21c-23.45,0-42.53-15.16-42.53-33.79s19.08-33.79,42.53-33.79,42.53,15.16,42.53,33.79-19.08,33.79-42.53,33.79Z"/>
      <path d="M402.26,216.13c21.52,0,39.03,13.59,39.03,30.29s-17.51,30.29-39.03,30.29-39.03-13.59-39.03-30.29,17.51-30.29,39.03-30.29M402.26,209.13c-25.42,0-46.03,16.7-46.03,37.29s20.61,37.29,46.03,37.29,46.03-16.7,46.03-37.29-20.61-37.29-46.03-37.29h0Z"/>
    </g>
  </g>
  <g id="Layer_5">
    <ellipse cx="417.79" cy="251.99" rx="13.86" ry="13.91"/>
  </g>
  <g id="Nose">
    <ellipse cx="315.75" cy="277.04" rx="17.86" ry="20.46"/>
  </g>
  <g id="Layer_13">
    <path d="M272.09,110.86s-119.56-19.98-153.69,141.12c41.84-54.5,72.73-101.19,107.27-106.58,34.54-5.4,46.41-34.54,46.41-34.54Z"/>
  </g>
  <g id="Layer_3">
    <g>
      <path class="st0" d="M170.35,289.54c-24.74,0-44.86-15.94-44.86-35.54s20.12-35.54,44.86-35.54,44.86,15.94,44.86,35.54-20.12,35.54-44.86,35.54Z"/>
      <path d="M170.35,221.96c22.81,0,41.36,14.37,41.36,32.04s-18.55,32.04-41.36,32.04-41.36-14.37-41.36-32.04,18.55-32.04,41.36-32.04M170.35,214.96c-26.71,0-48.36,17.48-48.36,39.04s21.65,39.04,48.36,39.04,48.36-17.48,48.36-39.04-21.65-39.04-48.36-39.04h0Z"/>
    </g>
  </g>
  <g id="Layer_4">
    <circle cx="155.2" cy="259.82" r="14.57"/>
  </g>
  <g id="Layer_7">
    <path class="st1" d="M137.72,76.86c39.85-13.31,61.76,94.39,61.76,94.39l-20.98,17.48-37.87-69.46s-22.32-35.93-2.91-42.41Z"/>
  </g>
  <g id="Layer_16">
    <path class="st1" d="M124.75,72.54c-41.95,2.33-118.68,38.88-111.69,78.5s134.6-33.34,134.6-33.34c0,0,20.27-7.38,17.03-28.97-3.24-21.59-39.94-16.19-39.94-16.19Z"/>
  </g>
  <g id="Layer_11">
    <path d="M375.25,185.24l-119.61,68.76,34.79-89.16-128.45,70.16,53.97-100.56s46.41-58.11,115.5-32.21,43.8,83.01,43.8,83.01Z"/>
  </g>
  <g id="Layer_15">
    <path class="st2" d="M300.04,347.39c6.05-14.71,35.19-23.34,51.92-8.77"/>
  </g>
</svg>